# xmcd
#
# Track frame offsets: 
#        150
#        12813
#        34781
#        44717
#        55826
#        68982
#        81203
#        104591
#        118358
#        141412
#        154012
#        169467
#        181707
#        196340
#        206094
#        217335
#        228318
#        241315
#        250994
#
# Disc length: 3627 seconds
#
# Revision: 1
# Processed by: cddbd v1.5.2PL0 Copyright (c) Steve Scherf et al.
# Submitted via: ExactAudioCopy v1.0b1
#
DISCID=210e2913
DTITLE=Johnny Copeland - Working Man's Blues
DYEAR=1999
DGENRE=Blues
TTITLE0=Daily Bread
TTITLE1=Drinking New York City Dry
TTITLE2=Wella Wella Baby
TTITLE3=Down On Bending Knees
TTITLE4=Just One More Time
TTITLE5=Let Me Cry
TTITLE6=Night Time Is Right Time (part 1+2)
TTITLE7=Working Man's Blues
TTITLE8=Rock Me Baby
TTITLE9=All These Things
TTITLE10=Getto Child
TTITLE11=Heebie Jeebies
TTITLE12=I Need You Now
TTITLE13=Late Hours
TTITLE14=May The Best Man Win
TTITLE15=Please Let Me Know
TTITLE16=Remus
TTITLE17=It Must Be Love
TTITLE18=Travelling Man
EXTD=
EXTT0=
EXTT1=
EXTT2=
EXTT3=
EXTT4=
EXTT5=
EXTT6=
EXTT7=
EXTT8=
EXTT9=
EXTT10=
EXTT11=
EXTT12=
EXTT13=
EXTT14=
EXTT15=
EXTT16=
EXTT17=
EXTT18=
PLAYORDER=
